<svg width="44" height="43" viewBox="0 0 44 43" fill="none" xmlns="http://www.w3.org/2000/svg">
<g clip-path="url(#clip0_208_8938)">
<path d="M9.7012 36.0525C7.92393 36.0525 6.47803 34.6396 6.47803 32.9027C6.47803 31.1658 7.92393 29.7529 9.7012 29.7529H22.0362C25.2351 29.7529 27.8375 27.2096 27.8375 24.0834C27.8375 20.9573 25.2351 18.4141 22.0362 18.4141H13.3371V20.9336H22.0362C23.8135 20.9336 25.2594 22.3466 25.2594 24.0835C25.2594 25.8204 23.8135 27.2333 22.0362 27.2333H9.7012C6.50235 27.2333 3.8999 29.7766 3.8999 32.9027C3.8999 36.0288 6.50235 38.5721 9.7012 38.5721H30.6626V36.0525H9.7012Z" fill="black"/>
<path d="M11.9428 6.43026C9.21069 3.76023 4.78113 3.76023 2.04909 6.43026C-0.683031 9.10029 -0.683031 13.4292 2.04909 16.0991L6.996 20.9336L11.9428 16.0991C14.6749 13.4291 14.6749 9.10021 11.9428 6.43026ZM6.95458 13.3334C5.75412 13.3334 4.78096 12.3824 4.78096 11.2092C4.78096 10.036 5.75412 9.08492 6.95458 9.08492C8.15504 9.08492 9.12828 10.036 9.12828 11.2092C9.12828 12.3824 8.15513 13.3334 6.95458 13.3334Z" fill="black"/>
<path d="M41.9511 24.0689C39.219 21.3989 34.7894 21.3989 32.0574 24.0689C29.3253 26.739 29.3253 31.0679 32.0574 33.7378L37.0043 38.5723L41.9512 33.7378C44.6832 31.0679 44.6832 26.739 41.9511 24.0689ZM36.9629 30.9722C35.7624 30.9722 34.7893 30.0212 34.7893 28.848C34.7893 27.6748 35.7624 26.7237 36.9629 26.7237C38.1633 26.7237 39.1366 27.6747 39.1366 28.848C39.1366 30.0212 38.1634 30.9722 36.9629 30.9722Z" fill="black"/>
</g>
<defs>
<clipPath id="clip0_208_8938">
<rect width="44" height="43" fill="white"/>
</clipPath>
</defs>
</svg>
