<svg width="286" height="215" viewBox="0 0 286 215" fill="none" xmlns="http://www.w3.org/2000/svg">
<path fill-rule="evenodd" clip-rule="evenodd" d="M82.2307 88.5371C82.2307 122.035 109.386 149.19 142.883 149.19C176.38 149.19 203.535 122.035 203.535 88.5371C203.535 55.0397 176.38 27.8848 142.883 27.8848C109.386 27.8848 82.2307 55.0397 82.2307 88.5371Z" fill="#FCFBD9"/>
<path fill-rule="evenodd" clip-rule="evenodd" d="M191.405 102.591L142.883 130.605L94.3611 102.591L142.883 74.5771L191.405 102.591Z" fill="white"/>
<path fill-rule="evenodd" clip-rule="evenodd" d="M191.405 102.591L142.883 130.605L94.3611 102.591L142.883 74.5771L191.405 102.591Z" stroke="#081F2D" stroke-linejoin="round"/>
<path d="M142.882 74.5762V130.604" stroke="#081F2D" stroke-linejoin="round"/>
<path fill-rule="evenodd" clip-rule="evenodd" d="M93.596 74.1011L109.497 64.9209C112.021 69.2938 117.664 70.8057 122.037 68.281L149.578 115.983C145.205 118.508 143.67 124.111 146.217 128.523L130.317 137.704C127.769 133.291 122.189 131.796 117.777 134.343L90.2358 86.6415C94.6481 84.094 96.1206 78.4741 93.596 74.1011Z" fill="#F1E302"/>
<path fill-rule="evenodd" clip-rule="evenodd" d="M98.3946 79.0631L111.396 71.5566C113.46 75.1324 118.074 76.3686 121.65 74.3044L144.169 113.308C140.594 115.373 139.338 119.955 141.422 123.563L128.42 131.069C126.337 127.461 121.774 126.238 118.166 128.321L95.6472 89.3169C99.2547 87.2341 100.459 82.6384 98.3946 79.0631Z" stroke="#081F2D"/>
<path fill-rule="evenodd" clip-rule="evenodd" d="M144.046 126.248C145.948 127.417 146.543 129.907 145.374 131.81C144.205 133.711 141.715 134.307 139.812 133.138C137.909 131.969 137.315 129.478 138.484 127.576C139.653 125.673 142.143 125.078 144.046 126.248ZM126.448 115.421L134.583 133.076C135.95 136.042 138.965 137.895 142.227 137.773L161.652 137.053C164.354 136.953 166.828 135.51 168.244 133.206L199.848 81.7723L158.506 56.3701L126.903 107.804C125.487 110.108 125.317 112.967 126.448 115.421Z" fill="#1BB5C8"/>
<path fill-rule="evenodd" clip-rule="evenodd" d="M148.545 109.927L151.782 111.916L153.961 108.369L154.51 108.81L152.377 112.282L155.985 114.499L155.566 115.181L147.531 110.243L150.426 105.531L151.021 105.897L148.545 109.927Z" fill="#081F2D"/>
<path fill-rule="evenodd" clip-rule="evenodd" d="M156.721 104.513L157.727 102.876C158.634 101.401 158.301 100.274 157.259 99.6341C156.205 98.9863 155.097 99.2616 154.205 100.712L153.199 102.349L156.721 104.513ZM163.587 101.985L163.649 102.023L163.169 102.804L158.263 103.309L157.303 104.871L160.639 106.921L160.22 107.603L152.185 102.665L153.625 100.322C154.722 98.536 156.26 98.0634 157.636 98.9089C158.814 99.6332 159.355 100.922 158.679 102.522L163.587 101.985Z" fill="#081F2D"/>
<path fill-rule="evenodd" clip-rule="evenodd" d="M167.642 94.1905L168.238 94.5562L165.304 99.3303L157.269 94.3929L160.164 89.6807L160.76 90.0464L158.283 94.0768L161.358 95.9662L163.538 92.4198L164.075 92.8524L161.941 96.3244L165.128 98.2825L167.642 94.1905Z" fill="#081F2D"/>
<path fill-rule="evenodd" clip-rule="evenodd" d="M172.528 86.2413L173.123 86.6067L170.19 91.3811L162.154 86.4433L165.05 81.7314L165.645 82.0972L163.169 86.1276L166.244 88.017L168.423 84.4706L168.96 84.9028L166.827 88.3752L170.014 90.3333L172.528 86.2413Z" fill="#081F2D"/>
<path fill-rule="evenodd" clip-rule="evenodd" d="M191.405 158.619L142.883 186.633V130.605L191.405 102.591V158.619Z" fill="#C3E1A1"/>
<path fill-rule="evenodd" clip-rule="evenodd" d="M203.535 123.601L155.013 151.616L142.883 130.605L191.405 102.591L203.535 123.601Z" fill="white"/>
<path fill-rule="evenodd" clip-rule="evenodd" d="M203.535 123.601L155.013 151.616L142.883 130.605L191.405 102.591L203.535 123.601Z" stroke="#081F2D" stroke-linejoin="round"/>
<path fill-rule="evenodd" clip-rule="evenodd" d="M142.883 186.633L94.3611 158.619V102.591L142.883 130.605V186.633Z" fill="#C3E1A1"/>
<path d="M97.7214 152.553L106.974 157.894" stroke="#081F2D" stroke-linejoin="round"/>
<path d="M97.7214 155.707L106.974 161.049" stroke="#081F2D" stroke-linejoin="round"/>
<path fill-rule="evenodd" clip-rule="evenodd" d="M142.883 130.605L130.753 151.616L82.2307 123.601L94.361 102.591L142.883 130.605Z" fill="white"/>
<path fill-rule="evenodd" clip-rule="evenodd" d="M142.883 130.605L130.753 151.616L82.2307 123.601L94.361 102.591L142.883 130.605Z" stroke="#081F2D" stroke-linejoin="round"/>
<path d="M142.882 130.605V186.634" stroke="#081F2D" stroke-linejoin="round"/>
<path fill-rule="evenodd" clip-rule="evenodd" d="M150.63 43.034C150.63 46.9132 142.883 51.999 142.883 51.999C142.883 51.999 135.136 46.9132 135.136 43.034C135.136 40.4667 137.217 38.3857 139.785 38.3857C140.975 38.3857 142.061 38.8333 142.883 39.5701C143.706 38.8333 144.791 38.3857 145.982 38.3857C148.549 38.3857 150.63 40.4667 150.63 43.034Z" fill="#F16091"/>
<path fill-rule="evenodd" clip-rule="evenodd" d="M85.5659 135.316C79.603 141.279 69.9353 141.279 63.9722 135.316C58.0093 129.353 58.0093 119.685 63.9722 113.722C69.9353 107.759 79.603 107.759 85.5659 113.722C91.5288 119.685 91.5288 129.353 85.5659 135.316Z" fill="#1BB5C8"/>
<path fill-rule="evenodd" clip-rule="evenodd" d="M78.6408 121.363C78.6408 121.995 78.1281 122.508 77.4956 122.508C76.8631 122.508 76.3506 121.995 76.3506 121.363C76.3506 120.731 76.8631 120.218 77.4956 120.218C78.1281 120.218 78.6408 120.731 78.6408 121.363Z" fill="#081F2D"/>
<path d="M79.4037 127.386C77.3087 129.481 74.2989 130.104 71.6599 129.254" stroke="#081F2D" stroke-width="2"/>
<path fill-rule="evenodd" clip-rule="evenodd" d="M71.6611 121.363C71.6611 121.995 71.1483 122.508 70.5159 122.508C69.8834 122.508 69.3708 121.995 69.3708 121.363C69.3708 120.731 69.8834 120.218 70.5159 120.218C71.1483 120.218 71.6611 120.731 71.6611 121.363Z" fill="#081F2D"/>
<path fill-rule="evenodd" clip-rule="evenodd" d="M89.7575 57.6713C86.6132 69.4055 59.0568 78.5107 59.0568 78.5107C59.0568 78.5107 39.7446 56.8472 42.8888 45.113C44.9695 37.3478 52.9518 32.7392 60.717 34.8199C64.3185 35.7848 67.2403 38.0184 69.1308 40.9142C72.2156 39.3515 75.8629 38.8782 79.4643 39.8431C87.2296 41.9238 91.8381 49.906 89.7575 57.6713Z" fill="#F16091"/>
<path fill-rule="evenodd" clip-rule="evenodd" d="M169.996 113.888C168.542 115.934 164.096 122.376 164.473 129.996C164.535 131.27 164.715 134.29 166.225 134.847C168.078 135.529 170.961 132.169 172.017 130.76C175.413 126.231 183.91 110.471 194.434 88.6602C188.49 93.486 177.98 102.656 169.996 113.888Z" fill="#081F2D"/>
<mask id="mask0_596_16332" style="mask-type:luminance" maskUnits="userSpaceOnUse" x="125" y="31" width="81" height="95">
<path fill-rule="evenodd" clip-rule="evenodd" d="M186.32 31.1086C178.637 31.375 172.881 42.8739 170.808 49.3715C169.94 52.0974 168.672 57.2197 169.305 64.034C168.805 63.3433 158.32 49.3211 146.231 51.7803C144.982 52.0338 139.391 53.3401 137.826 57.4857C136.748 60.3317 137.826 63.8503 140.044 66.8611C139.417 66.7278 132.241 65.2956 129.762 68.9657C129.66 69.118 128.995 70.1258 128.982 71.4825C128.963 73.2321 130.028 75.0893 131.721 76.8136C130.999 76.9723 128.348 77.6315 126.852 80.0464C125.781 81.7707 125.737 83.6851 125.927 84.7501C126.384 87.2729 128.995 89.5048 132.311 91.1082C131.48 91.3238 130.7 91.6409 129.99 92.0781C129.299 92.5032 127.816 93.4159 127.385 95.0575C127.22 95.6788 126.567 98.8166 133.445 104.471C140.97 110.652 148.063 112.085 155.562 114.677C160.837 116.496 168.462 119.628 177.293 125.226L205.418 97.7441C197.114 92.5915 192.437 87.1017 190.58 83.8184C185.191 74.3096 184.615 58.6651 189.362 46.1068C190.96 41.8726 193.92 36.0024 191.391 32.9283C190.045 31.2942 187.686 31.1025 186.639 31.1025C186.512 31.1025 186.404 31.105 186.32 31.1086Z" fill="white"/>
</mask>
<g mask="url(#mask0_596_16332)">
<path fill-rule="evenodd" clip-rule="evenodd" d="M186.32 31.1086C178.637 31.375 172.881 42.8739 170.808 49.3715C169.94 52.0974 168.672 57.2197 169.305 64.034C168.805 63.3433 158.32 49.3211 146.231 51.7803C144.982 52.0338 139.391 53.3401 137.826 57.4857C136.748 60.3317 137.826 63.8503 140.044 66.8611C139.417 66.7278 132.241 65.2956 129.762 68.9657C129.66 69.118 128.995 70.1258 128.982 71.4825C128.963 73.2321 130.028 75.0893 131.721 76.8136C130.999 76.9723 128.348 77.6315 126.852 80.0464C125.781 81.7707 125.737 83.6851 125.927 84.7501C126.384 87.2729 128.995 89.5048 132.311 91.1082C131.48 91.3238 130.7 91.6409 129.99 92.0781C129.299 92.5032 127.816 93.4159 127.385 95.0575C127.22 95.6788 126.567 98.8166 133.445 104.471C140.97 110.652 148.063 112.085 155.562 114.677C160.837 116.496 168.462 119.628 177.293 125.226L205.418 97.7441C197.114 92.5915 192.437 87.1017 190.58 83.8184C185.191 74.3096 184.615 58.6651 189.362 46.1068C190.96 41.8726 193.92 36.0024 191.391 32.9283C190.045 31.2942 187.686 31.1025 186.639 31.1025C186.512 31.1025 186.404 31.105 186.32 31.1086Z" fill="url(#paint0_linear_596_16332)"/>
</g>
<path d="M170.301 70.0326C167.941 60.226 169.695 52.8533 170.806 49.373" stroke="#081F2D"/>
<path d="M171.566 99.628C170.183 98.183 168.228 95.7627 166.872 92.2993C164.725 86.8163 165.337 81.9307 165.752 79.7471" stroke="#081F2D"/>
<mask id="mask1_596_16332" style="mask-type:luminance" maskUnits="userSpaceOnUse" x="127" y="90" width="21" height="14">
<path fill-rule="evenodd" clip-rule="evenodd" d="M129.992 92.0778C129.413 92.4342 127.832 93.3416 127.385 95.0572C126.796 97.3209 128.564 99.4423 129.033 100.005C131.848 103.382 136.569 103.377 138.311 103.376C140.069 103.374 145.004 103.369 146.602 100.326C147.353 98.8957 147.04 97.4196 147.001 97.2491C146.186 93.6665 140.521 90.7275 135.332 90.7275C133.393 90.7275 131.521 91.1376 129.992 92.0778Z" fill="white"/>
</mask>
<g mask="url(#mask1_596_16332)">
<path fill-rule="evenodd" clip-rule="evenodd" d="M129.992 92.0778C129.413 92.4342 127.832 93.3416 127.385 95.0572C126.796 97.3209 128.564 99.4423 129.033 100.005C131.848 103.382 136.569 103.377 138.311 103.376C140.069 103.374 145.004 103.369 146.602 100.326C147.353 98.8957 147.04 97.4196 147.001 97.2491C146.186 93.6665 140.521 90.7275 135.332 90.7275C133.393 90.7275 131.521 91.1376 129.992 92.0778Z" fill="url(#paint1_linear_596_16332)"/>
</g>
<mask id="mask2_596_16332" style="mask-type:luminance" maskUnits="userSpaceOnUse" x="125" y="76" width="25" height="18">
<path fill-rule="evenodd" clip-rule="evenodd" d="M131.732 76.8146C130.907 77.0313 128.308 77.7155 126.856 80.0461C125.821 81.7052 125.728 83.6214 125.933 84.7504C127.194 91.7031 144.799 96.4525 148.544 91.835C149.581 90.5559 150.253 87.6973 149.227 85.508C148.8 84.5974 148.192 84.0447 147.838 83.7355C144.421 80.7568 139.532 76.4961 134.203 76.4961C133.388 76.4961 132.563 76.5955 131.732 76.8146Z" fill="white"/>
</mask>
<g mask="url(#mask2_596_16332)">
<path fill-rule="evenodd" clip-rule="evenodd" d="M131.732 76.8146C130.907 77.0313 128.308 77.7155 126.856 80.0461C125.821 81.7052 125.728 83.6214 125.933 84.7504C127.194 91.7031 144.799 96.4525 148.544 91.835C149.581 90.5559 150.253 87.6973 149.227 85.508C148.8 84.5974 148.192 84.0447 147.838 83.7355C144.421 80.7568 139.532 76.4961 134.203 76.4961C133.388 76.4961 132.563 76.5955 131.732 76.8146Z" fill="url(#paint2_linear_596_16332)"/>
</g>
<mask id="mask3_596_16332" style="mask-type:luminance" maskUnits="userSpaceOnUse" x="128" y="66" width="26" height="18">
<path fill-rule="evenodd" clip-rule="evenodd" d="M129.768 68.9621C129.028 70.0507 128.987 71.2054 128.984 71.4818C128.904 78.3454 145.546 86.8411 151.425 82.6294C151.714 82.4217 153.29 81.2433 153.647 79.3196C154.075 77.008 152.491 74.9885 151.283 73.4938C146.9 68.0691 140.573 66.9469 140.055 66.8629C139.445 66.7642 137.948 66.5215 136.244 66.5215C133.877 66.5215 131.11 66.9898 129.768 68.9621Z" fill="white"/>
</mask>
<g mask="url(#mask3_596_16332)">
<path fill-rule="evenodd" clip-rule="evenodd" d="M129.768 68.9621C129.028 70.0507 128.987 71.2054 128.984 71.4818C128.904 78.3454 145.546 86.8411 151.425 82.6294C151.714 82.4217 153.29 81.2433 153.647 79.3196C154.075 77.008 152.491 74.9885 151.283 73.4938C146.9 68.0691 140.573 66.9469 140.055 66.8629C139.445 66.7642 137.948 66.5215 136.244 66.5215C133.877 66.5215 131.11 66.9898 129.768 68.9621Z" fill="url(#paint3_linear_596_16332)"/>
</g>
<mask id="mask4_596_16332" style="mask-type:luminance" maskUnits="userSpaceOnUse" x="137" y="54" width="22" height="20">
<path fill-rule="evenodd" clip-rule="evenodd" d="M138.729 55.8619C138.36 56.3471 138.05 56.8855 137.825 57.4836C135.593 63.388 142.632 72.1725 149.897 73.3394C150.625 73.4559 155.132 74.1795 157.225 71.5072C159.532 68.5611 157.07 63.8321 156.802 63.3333C154.39 58.8449 149.338 57.85 148.488 57.6959L140.712 54.0137C139.975 54.5199 139.285 55.1298 138.729 55.8619Z" fill="white"/>
</mask>
<g mask="url(#mask4_596_16332)">
<path fill-rule="evenodd" clip-rule="evenodd" d="M138.729 55.8619C138.36 56.3471 138.05 56.8855 137.825 57.4836C135.593 63.388 142.632 72.1725 149.897 73.3394C150.625 73.4559 155.132 74.1795 157.225 71.5072C159.532 68.5611 157.07 63.8321 156.802 63.3333C154.39 58.8449 149.338 57.85 148.488 57.6959L140.712 54.0137C139.975 54.5199 139.285 55.1298 138.729 55.8619Z" fill="url(#paint4_linear_596_16332)"/>
</g>
<path d="M138.305 103.377C142.169 103.796 145.409 102.628 146.597 100.327C146.695 100.138 147.352 98.8189 146.996 97.2505C146.69 95.9038 145.698 94.6483 144.304 93.6055" stroke="#081F2D"/>
<path d="M147.832 83.7373C148.276 84.1123 148.829 84.6872 149.221 85.5094C150.293 87.7628 149.544 90.5963 148.538 91.8365C145.661 95.3839 134.605 93.4034 129.062 89.1423" stroke="#081F2D"/>
<path d="M151.278 73.4941C151.668 73.8674 154.211 76.3734 153.641 79.3203C153.275 81.2101 151.809 82.3505 151.419 82.6301C146.558 86.1132 134.334 80.9048 130.296 75.1165" stroke="#081F2D"/>
<path d="M148.484 57.6973C149.335 57.851 154.387 58.8456 156.799 63.3343C157.067 63.8334 159.529 68.562 157.222 71.5082C155.129 74.1809 150.622 73.4569 149.894 73.34C145.162 72.5803 140.525 68.5885 138.485 64.266" stroke="#081F2D"/>
<mask id="mask5_596_16332" style="mask-type:luminance" maskUnits="userSpaceOnUse" x="165" y="89" width="59" height="70">
<path fill-rule="evenodd" clip-rule="evenodd" d="M165.989 89.0635H223.295V158.81H165.989V89.0635Z" fill="white"/>
</mask>
<g mask="url(#mask5_596_16332)">
<path fill-rule="evenodd" clip-rule="evenodd" d="M223.295 111.088L190.487 158.81C182.559 150.558 176.69 145.174 172.886 141.541C170.583 139.339 168.284 137.163 165.989 135.013C166.007 135.026 166.064 135.065 166.127 135.101C166.175 135.136 166.227 135.163 166.278 135.19C166.322 135.214 166.372 135.235 166.411 135.246C168.258 135.93 171.142 132.572 172.2 131.161C175.596 126.634 184.093 110.876 194.619 89.0635L223.295 111.088Z" fill="#24BDD6"/>
</g>
<path d="M172.247 140.93V140.93C176.479 139.283 180.026 136.248 182.308 132.322L203.485 95.873" stroke="#081F2D"/>
<path d="M164.655 130.397C164.718 131.671 164.898 134.691 166.407 135.247C168.26 135.93 171.143 132.57 172.199 131.161C175.595 126.632 184.092 110.872 194.617 89.0605" stroke="#081F2D" stroke-linecap="round" stroke-linejoin="round"/>
<defs>
<linearGradient id="paint0_linear_596_16332" x1="240.367" y1="89.0066" x2="175.739" y2="42.8095" gradientUnits="userSpaceOnUse">
<stop stop-color="#FF5607"/>
<stop offset="1" stop-color="#FFA700"/>
</linearGradient>
<linearGradient id="paint1_linear_596_16332" x1="181.666" y1="101.144" x2="158.656" y2="73.2735" gradientUnits="userSpaceOnUse">
<stop stop-color="#FF5607"/>
<stop offset="1" stop-color="#FFA700"/>
</linearGradient>
<linearGradient id="paint2_linear_596_16332" x1="181.985" y1="88.8169" x2="155.283" y2="63.3506" gradientUnits="userSpaceOnUse">
<stop stop-color="#FF5607"/>
<stop offset="1" stop-color="#FFA700"/>
</linearGradient>
<linearGradient id="paint3_linear_596_16332" x1="185.453" y1="78.3331" x2="159.716" y2="52.2075" gradientUnits="userSpaceOnUse">
<stop stop-color="#FF5607"/>
<stop offset="1" stop-color="#FFA700"/>
</linearGradient>
<linearGradient id="paint4_linear_596_16332" x1="190.078" y1="62.1812" x2="151.946" y2="40.8135" gradientUnits="userSpaceOnUse">
<stop stop-color="#FF5607"/>
<stop offset="1" stop-color="#FFA700"/>
</linearGradient>
</defs>
</svg>
