<svg width="189" height="173" viewBox="0 0 189 173" fill="none" xmlns="http://www.w3.org/2000/svg">
<path fill-rule="evenodd" clip-rule="evenodd" d="M36.7719 97.3785C36.7719 135.277 67.4948 166 105.394 166C143.292 166 174.015 135.277 174.015 97.3785C174.015 59.4798 143.292 28.7568 105.394 28.7568C67.4948 28.7568 36.7719 59.4798 36.7719 97.3785Z" fill="#FCFBD9"/>
<path fill-rule="evenodd" clip-rule="evenodd" d="M98.6964 137C98.6964 156.882 82.5788 173 62.6964 173C42.8145 173 26.6964 156.882 26.6964 137C26.6964 117.118 42.8145 101 62.6964 101C82.5788 101 98.6964 117.118 98.6964 137Z" fill="#FF882E"/>
<path d="M77.4789 126.921L59.4792 144.921L52.2355 137.677" stroke="#081F2D" stroke-width="3.393"/>
<path d="M1.69653 93.7642C1.69653 85.2723 4.93596 76.78 11.4152 70.3007C17.8945 63.8215 26.3868 60.582 34.8787 60.582" stroke="#081F2D" stroke-width="3.393"/>
<path d="M18.2878 93.7649C18.2878 89.5187 19.9078 85.273 23.1472 82.0332C26.387 78.7937 30.6328 77.1738 34.8789 77.1738" stroke="#081F2D" stroke-width="3.393"/>
<path fill-rule="evenodd" clip-rule="evenodd" d="M138.142 108.853C135.432 109.701 127.018 112.462 122.142 119.586C121.327 120.777 119.422 123.62 120.402 125.155C121.604 127.038 126.501 125.983 128.416 125.437C134.575 123.68 153.016 115.296 177.424 102.847C168.766 103.127 153.021 104.196 138.142 108.853Z" fill="#081F2D"/>
<path fill-rule="evenodd" clip-rule="evenodd" d="M138.142 108.853C135.432 109.701 127.018 112.462 122.142 119.586C121.327 120.777 119.422 123.62 120.402 125.155C121.604 127.038 126.501 125.983 128.416 125.437C134.575 123.68 153.016 115.296 177.424 102.847C168.766 103.127 153.021 104.196 138.142 108.853Z" stroke="#081F2D" stroke-width="2.036" stroke-linecap="round" stroke-linejoin="round"/>
<mask id="mask0_620_56029" style="mask-type:luminance" maskUnits="userSpaceOnUse" x="83" y="17" width="99" height="111">
<path fill-rule="evenodd" clip-rule="evenodd" d="M95.5917 18.6857C94.3366 19.7115 94.0782 21.318 94.0066 21.8127C93.4399 25.7507 96.9467 29.5948 102.627 34.2709C101.86 33.7257 94.0494 28.3393 90.4775 31.0436C89.0866 32.1049 88.8714 33.9983 88.8067 34.6361C88.0608 41.3063 104.951 53.1331 116.06 60.1834C103.273 52.5595 88.0394 44.8567 84.2094 49.0305C83.4636 49.8411 83.3491 50.8882 83.3058 51.3473C82.7606 56.5108 91.0159 60.6207 108.917 71.9022C104.786 69.3565 100.024 66.5733 96.2081 64.7734C94.3289 63.884 91.1449 62.514 89.4951 63.8411C89.4951 63.8411 88.7351 64.4502 88.5199 65.7704C87.6236 71.1993 110.445 87.487 123.641 104.585C127.306 109.326 132.362 116.899 136.536 127.815L181.77 123.526C180.989 121.26 179.906 117.832 178.973 113.572C175.437 97.4419 178.837 91.3242 177.116 77.5325C176.7 74.2186 174.878 61.5243 166.688 48.6507C161.861 41.0624 152.695 30.068 148.198 31.9541C145.523 33.0801 145.021 38.5239 145.501 42.0093C145.817 44.2755 146.584 45.997 147.581 47.5461C141.535 42.9201 120.629 27.0915 107.648 20.6725C103.933 18.839 100.86 17.7672 98.5549 17.7676C97.3524 17.7676 96.3586 18.0592 95.5917 18.6857Z" fill="white"/>
</mask>
<g mask="url(#mask0_620_56029)">
<path fill-rule="evenodd" clip-rule="evenodd" d="M95.5917 18.6857C94.3366 19.7115 94.0782 21.318 94.0066 21.8127C93.4399 25.7507 96.9467 29.5948 102.627 34.2709C101.86 33.7257 94.0494 28.3393 90.4775 31.0436C89.0866 32.1049 88.8714 33.9983 88.8067 34.6361C88.0608 41.3063 104.951 53.1331 116.06 60.1834C103.273 52.5595 88.0394 44.8567 84.2094 49.0305C83.4636 49.8411 83.3491 50.8882 83.3058 51.3473C82.7606 56.5108 91.0159 60.6207 108.917 71.9022C104.786 69.3565 100.024 66.5733 96.2081 64.7734C94.3289 63.884 91.1449 62.514 89.4951 63.8411C89.4951 63.8411 88.7351 64.4502 88.5199 65.7704C87.6236 71.1993 110.445 87.487 123.641 104.585C127.306 109.326 132.362 116.899 136.536 127.815L181.77 123.526C180.989 121.26 179.906 117.832 178.973 113.572C175.437 97.4419 178.837 91.3242 177.116 77.5325C176.7 74.2186 174.878 61.5243 166.688 48.6507C161.861 41.0624 152.695 30.068 148.198 31.9541C145.523 33.0801 145.021 38.5239 145.501 42.0093C145.817 44.2755 146.584 45.997 147.581 47.5461C141.535 42.9201 120.629 27.0915 107.648 20.6725C103.933 18.839 100.86 17.7672 98.5549 17.7676C97.3524 17.7676 96.3586 18.0592 95.5917 18.6857Z" fill="url(#paint0_linear_620_56029)"/>
</g>
<path d="M98.609 65.4844C101.596 67.3425 105.03 69.4551 108.919 71.9054C112.822 74.3642 115.913 76.3639 117.595 77.4568" stroke="#081F2D" stroke-width="2.036"/>
<path d="M105.52 53.0977C112.561 58.1625 119.921 62.6226 123.409 64.6975" stroke="#081F2D" stroke-width="2.036"/>
<path d="M98.1816 30.292C100.094 32.2258 102.571 34.2732 105.433 36.5197C110.69 40.6445 117.86 45.9192 126.888 51.581" stroke="#081F2D" stroke-width="2.036"/>
<mask id="mask1_620_56029" style="mask-type:luminance" maskUnits="userSpaceOnUse" x="98" y="0" width="55" height="94">
<path fill-rule="evenodd" clip-rule="evenodd" d="M98.2227 0H152.013V93.2362H98.2227V0Z" fill="white"/>
</mask>
<g mask="url(#mask1_620_56029)">
<path fill-rule="evenodd" clip-rule="evenodd" d="M144.841 93.2363H105.394C101.433 93.2363 98.2227 90.0252 98.2227 86.0642V7.17211C98.2227 3.21111 101.433 0 105.394 0H144.841C148.802 0 152.013 3.21111 152.013 7.17211V86.0642C152.013 90.0252 148.802 93.2363 144.841 93.2363Z" fill="#F1E302"/>
</g>
<path d="M118.256 4.6661H131.98" stroke="#081F2D" stroke-width="2.036"/>
<path d="M114.962 87.7462H135.274" stroke="white" stroke-width="2.036"/>
<mask id="mask2_620_56029" style="mask-type:luminance" maskUnits="userSpaceOnUse" x="145" y="31" width="37" height="93">
<path fill-rule="evenodd" clip-rule="evenodd" d="M148.198 31.9532C145.523 33.0793 145.021 38.5231 145.501 42.0084C146.341 48.0399 150.392 50.1772 153.405 55.657C155.119 58.7694 156.675 63.2881 156.482 69.8216C156.482 69.8216 154.079 70.7179 151.992 72.4248C142.862 79.8841 145.207 94.8593 145.523 96.7093L181.77 123.525C180.989 121.259 179.913 117.831 178.973 113.571C175.444 97.441 178.837 91.323 177.115 77.5317C176.7 74.2178 174.878 61.5234 166.687 48.6499C162.232 41.6456 154.08 31.7393 149.315 31.7393C148.918 31.7393 148.544 31.808 148.198 31.9532Z" fill="white"/>
</mask>
<g mask="url(#mask2_620_56029)">
<path fill-rule="evenodd" clip-rule="evenodd" d="M148.198 31.9532C145.523 33.0793 145.021 38.5231 145.501 42.0084C146.341 48.0399 150.392 50.1772 153.405 55.657C155.119 58.7694 156.675 63.2881 156.482 69.8216C156.482 69.8216 154.079 70.7179 151.992 72.4248C142.862 79.8841 145.207 94.8593 145.523 96.7093L181.77 123.525C180.989 121.259 179.913 117.831 178.973 113.571C175.444 97.441 178.837 91.323 177.115 77.5317C176.7 74.2178 174.878 61.5234 166.687 48.6499C162.232 41.6456 154.08 31.7393 149.315 31.7393C148.918 31.7393 148.544 31.808 148.198 31.9532Z" fill="url(#paint1_linear_620_56029)"/>
</g>
<path d="M156.483 69.822C156.483 61.65 154.956 58.4729 153.406 55.6573C150.394 50.1779 146.341 48.0407 145.502 42.0088" stroke="#081F2D" stroke-width="2.036"/>
<path d="M145.524 96.71C145.208 94.8596 142.863 79.8844 151.993 72.4255C154.073 70.7263 156.482 69.8223 156.482 69.8223C157.468 69.4255 158.317 69.1848 158.906 69.04" stroke="#081F2D" stroke-width="2.036"/>
<mask id="mask3_620_56029" style="mask-type:luminance" maskUnits="userSpaceOnUse" x="120" y="102" width="69" height="61">
<path fill-rule="evenodd" clip-rule="evenodd" d="M120.184 102.849H188.188V162.86H120.184V102.849Z" fill="white"/>
</mask>
<g mask="url(#mask3_620_56029)">
<path fill-rule="evenodd" clip-rule="evenodd" d="M188.188 142.316L125.972 162.86C124.475 150 122.871 141.133 121.931 135.257C121.363 131.697 120.781 128.163 120.184 124.655C120.192 124.68 120.216 124.753 120.248 124.829C120.267 124.894 120.296 124.953 120.324 125.013C120.347 125.064 120.377 125.117 120.404 125.154C121.602 127.034 126.497 125.983 128.416 125.436C134.574 123.68 153.013 115.297 177.423 102.849L188.188 142.316Z" fill="#FF882E"/>
</g>
<path d="M121.774 134.271V134.271C126.714 135.683 131.987 135.375 136.729 133.399L180.753 115.053" stroke="#081F2D" stroke-width="2.036"/>
<path d="M122.142 119.585C121.327 120.776 119.422 123.62 120.401 125.154C121.604 127.037 126.5 125.982 128.416 125.436C134.575 123.679 153.016 115.295 177.424 102.846" stroke="#081F2D" stroke-width="2.036" stroke-linecap="round" stroke-linejoin="round"/>
<defs>
<linearGradient id="paint0_linear_620_56029" x1="221.452" y1="86.7346" x2="145.046" y2="25.5352" gradientUnits="userSpaceOnUse">
<stop stop-color="#FF5607"/>
<stop offset="1" stop-color="#FFA700"/>
</linearGradient>
<linearGradient id="paint1_linear_620_56029" x1="176.57" y1="129.833" x2="176.57" y2="64.0215" gradientUnits="userSpaceOnUse">
<stop stop-color="#FF5607"/>
<stop offset="1" stop-color="#FFA700"/>
</linearGradient>
</defs>
</svg>
