<svg width="49" height="49" viewBox="0 0 49 49" fill="none" xmlns="http://www.w3.org/2000/svg">
<path d="M44.2476 35.0273C44.2476 34.3941 44.7627 33.8789 45.396 33.8789H47.4775V31.7734H45.396C43.6018 31.7734 42.1421 33.2331 42.1421 35.0273C42.1421 36.8216 43.6018 38.2812 45.396 38.2812H47.9474V36.1758H45.396C44.7627 36.1758 44.2476 35.6606 44.2476 35.0273Z" fill="#FF882E"/>
<path d="M3.0625 31.7734H1.27419V33.8789H3.0625C3.69577 33.8789 4.21094 34.3941 4.21094 35.0273C4.21094 35.6606 3.69577 36.1758 3.0625 36.1758H1.05273V38.2812H3.0625C4.85674 38.2812 6.31641 36.8216 6.31641 35.0273C6.31641 33.2331 4.85674 31.7734 3.0625 31.7734Z" fill="#FF882E"/>
<path d="M8.87809 20.1886C7.54514 19.3677 6.40665 18.2292 5.58581 16.8962C5.39421 16.5851 5.05485 16.3955 4.68936 16.3955C4.32387 16.3955 3.9846 16.585 3.79291 16.8962C2.97206 18.2293 1.83358 19.3678 0.500719 20.1885C0.189492 20.3801 0 20.7194 0 21.0848C0 21.4503 0.189492 21.7895 0.500623 21.9812C1.83367 22.8023 2.97216 23.9407 3.79291 25.2736C3.9845 25.5847 4.32387 25.7743 4.68936 25.7743C5.05485 25.7743 5.39412 25.5848 5.58581 25.2736C6.40665 23.9406 7.54504 22.8022 8.87809 21.9813C9.18922 21.7897 9.37881 21.4504 9.37881 21.0849C9.37881 20.7195 9.18932 20.3802 8.87809 20.1886ZM4.68945 22.9044C4.14902 22.2365 3.53795 21.6254 2.87004 21.085C3.53786 20.5446 4.14911 19.9334 4.68945 19.2655C5.22979 19.9335 5.84105 20.5446 6.50887 21.0851C5.84095 21.6253 5.22979 22.2366 4.68945 22.9044Z" fill="#FF882E"/>
<path d="M12.2499 15.6953C12.6154 15.6953 12.9547 15.5058 13.1464 15.1946C13.9672 13.8615 15.1057 12.7231 16.4385 11.9023C16.7498 11.7107 16.9393 11.3713 16.9393 11.006C16.9393 10.6405 16.7498 10.3012 16.4385 10.1095C15.1056 9.28856 13.9671 8.15008 13.1463 6.81713C12.9547 6.5059 12.6154 6.31641 12.2499 6.31641C11.8844 6.31641 11.5451 6.5059 11.3535 6.81713C10.5326 8.15017 9.39412 9.28866 8.06127 10.1094C7.75004 10.301 7.56055 10.6404 7.56055 11.0058C7.56055 11.3713 7.75004 11.7105 8.06127 11.9022C9.39422 12.7232 10.5327 13.8616 11.3535 15.1946C11.5451 15.5058 11.8844 15.6953 12.2499 15.6953ZM12.2499 9.18645C12.7902 9.85436 13.4015 10.4655 14.0693 11.0059C13.4015 11.5462 12.7903 12.1575 12.2499 12.8253C11.7096 12.1574 11.0983 11.5462 10.4305 11.0059C11.0983 10.4655 11.7096 9.85426 12.2499 9.18645Z" fill="#FF882E"/>
<path d="M49.0002 10.9933C49.0002 6.09256 45.0131 2.10547 40.1124 2.10547C35.2116 2.10547 31.2246 6.09256 31.2246 10.9933C31.2246 15.8941 35.2117 19.8811 40.1124 19.8811C45.0131 19.8811 49.0002 15.894 49.0002 10.9933ZM40.1124 17.7756C36.3726 17.7756 33.3301 14.733 33.3301 10.9933C33.3301 7.25353 36.3727 4.21094 40.1124 4.21094C43.8522 4.21094 46.8948 7.25353 46.8948 10.9933C46.8948 14.733 43.8522 17.7756 40.1124 17.7756Z" fill="#FF882E"/>
<path d="M42.1884 8.38355L39.3759 11.1961L38.0364 9.85661C37.6253 9.44547 36.9587 9.44547 36.5475 9.85661C36.1365 10.2678 36.1365 10.9343 36.5475 11.3455L38.6314 13.4293C38.837 13.6349 39.1064 13.7377 39.3758 13.7377C39.6452 13.7377 39.9146 13.6349 40.1201 13.4293L43.677 9.8724C44.0881 9.46126 44.0881 8.79469 43.677 8.38355C43.2661 7.97241 42.5995 7.97241 42.1884 8.38355Z" fill="#FF882E"/>
<path d="M28.6517 25.0826C28.4518 24.8393 28.1534 24.6982 27.8385 24.6982H16.95C16.6351 24.6982 16.3367 24.8393 16.1367 25.0826L10.4738 31.9732C10.2153 32.2878 10.1613 32.7232 10.3353 33.0914C10.5092 33.4596 10.88 33.6943 11.2871 33.6943H33.5014C33.9085 33.6943 34.2793 33.4595 34.4532 33.0914C34.6272 32.7232 34.5732 32.2878 34.3147 31.9732L28.6517 25.0826ZM17.4475 26.8037H21.3416V31.5889H13.515L17.4475 26.8037ZM23.447 31.5889V26.8037H27.341L31.2736 31.5889H23.447Z" fill="#FF882E"/>
<path d="M36.6495 40.756C36.1244 40.3871 35.3223 40.6284 35.0934 41.2288C34.7968 41.8978 35.3343 42.7006 36.0656 42.6844C37.0966 42.6854 37.5086 41.3273 36.6495 40.756Z" fill="black"/>
<path d="M11.2776 41.2279C10.9795 41.891 11.5234 42.7046 12.2499 42.6836C12.9813 42.6998 13.5173 41.8974 13.2222 41.2279C12.8764 40.3694 11.6235 40.3693 11.2776 41.2279Z" fill="black"/>
<path d="M44.6834 29.8195L37.2932 28.9659L31.7217 22.1866C30.8346 21.1073 29.5247 20.4883 28.1276 20.4883H16.6613C15.2643 20.4883 13.9544 21.1073 13.0674 22.1866L7.54169 28.9102H5.26367C2.36128 28.9102 0 31.2714 0 34.1738V41.6313C0 42.2127 0.471338 42.684 1.05273 42.684H7.09227C7.58131 45.0837 9.70803 46.895 12.25 46.895C14.792 46.895 16.9187 45.0837 17.4077 42.684H30.9075C31.3966 45.0837 33.5233 46.895 36.0652 46.895C38.6072 46.895 40.7339 45.0837 41.223 42.684H47.9473C48.5287 42.684 49 42.2127 49 41.6313V34.6633C49 32.1862 47.1443 30.1037 44.6834 29.8195ZM12.25 44.7895C10.5086 44.7895 9.0918 43.3727 9.0918 41.6313C9.0918 39.8899 10.5086 38.4731 12.25 38.4731C13.9914 38.4731 15.4082 39.8899 15.4082 41.6313C15.4082 43.3727 13.9914 44.7895 12.25 44.7895ZM36.0652 44.7895C34.3238 44.7895 32.907 43.3727 32.907 41.6313C32.907 39.8899 34.3238 38.4731 36.0652 38.4731C37.8067 38.4731 39.2234 39.8899 39.2234 41.6313C39.2234 43.3727 37.8068 44.7895 36.0652 44.7895ZM46.8945 40.5786H41.2231C40.734 38.1789 38.6073 36.3676 36.0653 36.3676C33.5234 36.3676 31.3967 38.1789 30.9076 40.5786H17.4077C16.9187 38.1789 14.792 36.3676 12.25 36.3676C9.70803 36.3676 7.58131 38.1789 7.09227 40.5786H2.10547V34.1737C2.10547 32.4323 3.52226 31.0155 5.26367 31.0155H8.03906C8.35402 31.0155 8.65242 30.8746 8.85235 30.6312L14.694 23.5232C15.1795 22.9324 15.8966 22.5936 16.6613 22.5936H28.1277C28.8925 22.5936 29.6095 22.9324 30.0951 23.5232L35.9367 30.6311C36.1099 30.8418 36.3582 30.9772 36.6292 31.0084L44.4419 31.9109C45.8401 32.0725 46.8945 33.2557 46.8945 34.6633V40.5786Z" fill="black"/>
<path d="M23.9911 36.0791H22.3945C21.8131 36.0791 21.3418 36.5504 21.3418 37.1318C21.3418 37.7132 21.8131 38.1846 22.3945 38.1846H23.9911C24.5725 38.1846 25.0439 37.7132 25.0439 37.1318C25.0439 36.5504 24.5725 36.0791 23.9911 36.0791Z" fill="black"/>
</svg>
