<svg width="50" height="50" viewBox="0 0 50 50" fill="none" xmlns="http://www.w3.org/2000/svg">
<g clip-path="url(#clip0_208_9422)">
<path d="M47.7874 20.5325C47.316 10.2477 38.8021 2.02539 28.4028 2.02539H21.5973C11.198 2.02539 2.68418 10.2478 2.2127 20.5325C0.927246 20.9716 0 22.1904 0 23.6227V31.2994C0 33.0998 1.46484 34.5646 3.26533 34.5646H9.22197C9.81524 34.5646 10.2962 34.0837 10.2962 33.4904V21.4316C10.2962 20.8384 9.81524 20.3574 9.22197 20.3574H4.37393C4.93047 11.34 12.4421 4.17383 21.5972 4.17383H28.4027C37.5579 4.17383 45.0694 11.3399 45.626 20.3574H40.7779C40.1847 20.3574 39.7037 20.8384 39.7037 21.4316V33.4904C39.7037 34.0837 40.1847 34.5646 40.7779 34.5646H46.7346C48.535 34.5646 49.9998 33.0998 49.9998 31.2994V23.6227C50 22.1904 49.0728 20.9716 47.7874 20.5325ZM8.14775 32.4162H3.26533C2.64951 32.4162 2.14844 31.9152 2.14844 31.2994V23.6227C2.14844 23.0068 2.64951 22.5059 3.26533 22.5059H8.14775V32.4162ZM47.8516 31.2994C47.8516 31.9152 47.3505 32.4162 46.7348 32.4162H41.8523V22.5059H46.7348C47.3506 22.5059 47.8516 23.0068 47.8516 23.6227V31.2994Z" fill="#FF882E"/>
<path d="M25.0002 47.975C24.684 47.975 24.3838 47.8356 24.1797 47.5941L19.091 41.5716H11.8092C9.79033 41.5716 8.14795 39.9292 8.14795 37.9104V18.3644C8.14795 16.3455 9.79033 14.7031 11.8092 14.7031H38.1914C40.2102 14.7031 41.8525 16.3455 41.8525 18.3644V37.9104C41.8525 39.9291 40.2102 41.5715 38.1914 41.5715H30.9096L25.8209 47.594C25.6166 47.8356 25.3164 47.975 25.0002 47.975ZM11.8091 16.8516C10.9749 16.8516 10.2963 17.5302 10.2963 18.3644V37.9104C10.2963 38.7444 10.9749 39.423 11.8091 39.423H19.5896C19.9059 39.423 20.2061 39.5624 20.4102 39.8039L25.0002 45.2363L29.5902 39.804C29.7943 39.5624 30.0945 39.4231 30.4107 39.4231H38.1913C39.0254 39.4231 39.704 38.7445 39.704 37.9104V18.3644C39.704 17.5302 39.0254 16.8516 38.1913 16.8516H11.8091Z" fill="black"/>
<path d="M18.9268 25.3018C18.0808 25.31 17.5558 24.3296 18.0343 23.6309C18.438 22.9986 19.4171 23.0026 19.8204 23.6309C20.2981 24.3306 19.7732 25.3102 18.9268 25.3018Z" fill="black"/>
<path d="M30.4421 25.3019C29.6971 25.3181 29.1474 24.4992 29.4499 23.8165C29.8028 22.9404 31.0812 22.9398 31.4333 23.8165C31.7373 24.4981 31.1866 25.3181 30.4421 25.3019Z" fill="black"/>
<path d="M24.9998 34.3952C22.5282 34.3952 20.0566 33.4178 17.8522 31.4628C17.4083 31.0693 17.3676 30.3904 17.7613 29.9464C18.1547 29.5026 18.8337 29.4619 19.2777 29.8555C22.8606 33.0328 27.1391 33.033 30.722 29.8555C31.166 29.4619 31.8448 29.5026 32.2384 29.9464C32.6321 30.3904 32.5913 31.0693 32.1475 31.4628C29.9432 33.4178 27.4715 34.3952 24.9998 34.3952Z" fill="black"/>
</g>
<defs>
<clipPath id="clip0_208_9422">
<rect width="50" height="50" fill="white"/>
</clipPath>
</defs>
</svg>
