<svg width="21" height="21" viewBox="0 0 21 21" fill="none" xmlns="http://www.w3.org/2000/svg">
<path d="M9.1808 0.652671C9.50296 -0.217947 10.7343 -0.217948 11.0565 0.65267L13.2002 6.44583C13.3015 6.71955 13.5173 6.93536 13.791 7.03665L19.5841 9.18031C20.4548 9.50247 20.4548 10.7339 19.5841 11.056L13.791 13.1997C13.5173 13.301 13.3015 13.5168 13.2002 13.7905L11.0565 19.5837C10.7343 20.4543 9.50296 20.4543 9.1808 19.5837L7.03714 13.7905C6.93585 13.5168 6.72004 13.301 6.44632 13.1997L0.653159 11.056C-0.217459 10.7339 -0.21746 9.50247 0.653158 9.18031L6.44632 7.03665C6.72004 6.93536 6.93585 6.71955 7.03714 6.44583L9.1808 0.652671Z" fill="#FFA41B"/>
</svg>
