<svg width="107" height="9" viewBox="0 0 107 9" fill="none" xmlns="http://www.w3.org/2000/svg">
<path d="M0.460235 5.5678L1.41681 5.59173C1.57624 5.59572 1.68518 5.4921 1.79413 5.38847C1.90307 5.28485 2.00803 5.34065 2.05718 5.50141C2.10766 5.60902 2.21395 5.61168 2.37338 5.61567C2.74538 5.62498 3.11605 5.68743 3.49071 5.59045C3.86537 5.49348 4.28652 5.66354 4.65985 5.61971C4.9269 5.57321 5.19527 5.47357 5.40784 5.47889C6.15184 5.49751 6.8427 5.51479 7.59069 5.37398C7.85773 5.32749 8.17792 5.28232 8.39315 5.18136C8.50076 5.13087 8.60838 5.08039 8.76648 5.13752C9.34573 5.36472 9.93296 5.27306 10.5229 5.07512C10.8444 4.97681 11.1101 4.98346 11.4289 4.99144C12.1198 5.00872 12.7575 5.02468 13.4019 4.77492C13.5082 4.77758 13.6158 4.7271 13.7207 4.7829C13.9838 4.89583 14.2017 4.68858 14.4129 4.74704C14.6773 4.80683 14.7902 4.54378 15.0533 4.65671C15.2114 4.71385 15.4784 4.66735 15.7441 4.674L15.9036 4.67799C16.1188 4.57702 16.3327 4.5292 16.544 4.58766C16.8097 4.59431 17.0807 4.38838 17.3438 4.50132C17.7716 4.40567 18.2472 4.52392 18.675 4.42827C19.4774 4.23565 20.2746 4.2556 21.0744 4.16926L22.1944 4.03775C22.5664 4.04706 22.9942 3.95141 23.3662 3.96072C23.7382 3.97003 24.1102 3.97934 24.4862 3.82922L24.6987 3.83453C25.0176 3.84251 25.3351 3.90363 25.6062 3.69771L25.8719 3.70436C26.2944 3.82128 26.774 3.78011 27.2005 3.7376C27.6801 3.69642 28.1623 3.54896 28.5862 3.61274C29.0631 3.67785 29.5427 3.63668 30.0237 3.54236C30.2907 3.49587 30.5046 3.44804 30.769 3.50783C31.0334 3.56762 31.3031 3.41484 31.5661 3.52778C31.8292 3.64071 32.0458 3.4866 32.3128 3.44011C32.633 3.39494 33.0063 3.35111 33.3252 3.35909C33.5909 3.36574 33.9084 3.42686 34.1768 3.32722C34.2844 3.27673 34.3907 3.2794 34.497 3.28206C34.9753 3.29402 35.504 3.4136 35.9876 3.213C36.2494 3.37908 36.5735 3.17449 36.8897 3.28875C37.2591 3.40434 37.5833 3.19975 37.9021 3.20773C38.4867 3.22236 39.0699 3.29012 39.6572 3.19846C40.2444 3.10681 40.7758 3.1201 41.3577 3.24101C41.4095 3.29549 41.5158 3.29815 41.6234 3.24766C42.1084 2.99392 42.689 3.16797 43.2204 3.18127C43.3798 3.18526 43.5419 3.08296 43.7531 3.14142C44.0175 3.20121 44.3895 3.21052 44.6566 3.16403C45.0844 3.06838 45.5069 3.1853 45.8815 3.08833C46.304 3.20525 46.6747 3.2677 47.1025 3.17205C47.3655 3.28499 47.5794 3.23716 47.7947 3.13619C48.0099 3.03523 48.2171 3.25312 48.4842 3.20663C48.7512 3.16013 49.1219 3.22258 49.3903 3.12295C49.7105 3.07778 50.028 3.1389 50.3468 3.14688L51.6223 3.17879C52.1006 3.19076 52.5775 3.25587 53.004 3.21337C53.4305 3.17086 53.8529 3.28779 54.2794 3.24528C54.9185 3.20809 55.6107 3.17224 56.2457 3.29448C56.5101 3.35427 56.7771 3.30778 57.0428 3.31442C57.2036 3.26527 57.363 3.26926 57.5225 3.27325L58.9042 3.30782C59.1686 3.36761 59.4396 3.16169 59.7027 3.27462C59.9657 3.38755 60.2367 3.18163 60.5011 3.24143C60.7124 3.29989 60.9768 3.35968 61.2425 3.36633C61.2943 3.4208 61.3474 3.42213 61.4019 3.37032C61.8842 3.22285 62.4129 3.34244 62.8926 3.30126C63.319 3.25876 63.7402 3.42882 64.1693 3.28003C64.2238 3.22822 64.2756 3.28269 64.3287 3.28402C64.8602 3.29732 65.4434 3.36509 66.028 3.37972C66.772 3.39833 67.4655 3.30933 68.2095 3.32794C68.2626 3.32927 68.3689 3.33193 68.4207 3.38641C68.6307 3.49801 68.7914 3.44886 69.004 3.45418L71.0766 3.50604C71.3954 3.51402 71.6625 3.46752 71.9282 3.47417C72.247 3.48215 72.5646 3.54327 72.8834 3.55125C73.2023 3.55923 73.5211 3.5672 73.7882 3.52071C74.5282 3.69875 75.227 3.39718 75.967 3.57523C76.0188 3.6297 76.1278 3.52607 76.1809 3.5274C76.3908 3.639 76.448 3.48091 76.452 3.32148L76.5596 3.27099C76.6645 3.32679 76.715 3.43441 76.82 3.49022C77.192 3.49952 77.6131 3.66959 77.9851 3.6789C78.4103 3.68954 78.7823 3.69884 79.2087 3.65634C79.7415 3.61649 80.3221 3.79055 80.912 3.5926C80.912 3.5926 80.9651 3.59393 80.9638 3.64707C81.175 3.70553 81.3863 3.764 81.6533 3.7175C81.9204 3.67101 82.1834 3.78394 82.3986 3.68297C82.5063 3.63249 82.6657 3.63648 82.7706 3.69228C83.1387 3.86102 83.512 3.81718 83.9398 3.72154C84.2068 3.67504 84.4725 3.68169 84.6838 3.74015C85.0531 3.85575 85.3733 3.81058 85.6922 3.81856C86.3299 3.83452 86.9184 3.68972 87.499 3.86377C88.0344 3.71764 88.615 3.8917 89.1491 3.79871C89.4693 3.75354 89.8386 3.86914 90.1615 3.71769C90.216 3.66587 90.3223 3.66853 90.4272 3.72434C90.847 3.94755 91.4356 3.80274 91.967 3.81604L92.1796 3.82136C93.0299 3.84263 93.932 3.91838 94.7836 3.88651C95.4226 3.84932 96.0564 4.02471 96.6967 3.93438C97.1205 3.99816 97.5457 4.0088 97.9177 4.01811L98.768 4.03938L99.6714 4.06199C99.9384 4.0155 100.256 4.07661 100.523 4.03012C100.79 3.98363 101.053 4.09656 101.372 4.10454L104.401 4.18033C105.092 4.19762 105.778 4.42747 106.526 4.28666C106.63 4.34246 106.735 4.39827 106.793 4.24017C106.851 4.02893 106.69 4.07808 106.587 3.96914C106.483 3.86019 106.325 3.80306 106.223 3.64097C106.066 3.53069 105.855 3.47223 105.642 3.46691C105.164 3.45495 104.635 3.33536 104.161 3.16397C103.791 3.04837 103.421 2.98593 103.049 2.97662C102.624 2.96598 102.197 3.00849 101.83 2.78661C101.672 2.72948 101.512 2.77863 101.405 2.77597C100.874 2.76267 100.342 2.74937 99.8123 2.68293C99.1227 2.6125 98.4345 2.48893 97.7437 2.47164C97.478 2.465 97.2109 2.51149 96.9452 2.50484C96.8389 2.50219 96.7313 2.55266 96.625 2.55001C95.7747 2.52873 94.9829 2.29621 94.13 2.38122C93.6504 2.4224 93.2279 2.30548 92.7469 2.3998C91.4728 2.31474 90.1947 2.38911 88.8662 2.35587C88.7599 2.35321 88.6549 2.29741 88.5486 2.29475C88.0172 2.28145 87.4898 2.10872 86.8999 2.30667C86.7391 2.35582 86.5784 2.40498 86.4216 2.2947C86.2117 2.1831 85.946 2.17645 85.7334 2.17113C85.0957 2.15517 84.4606 2.03293 83.8694 2.28402L83.4974 2.27471C83.0762 2.10465 82.6445 2.35973 82.2246 2.13652C81.9549 2.2893 81.6387 2.17503 81.3199 2.16705C81.001 2.15907 80.6795 2.25738 80.3633 2.14312C80.0471 2.02885 79.7243 2.1803 79.4054 2.17233C78.8208 2.1577 78.2894 2.1444 77.7062 2.07663C77.0698 2.00753 76.4825 2.09919 75.898 2.08457L69.3083 1.91968C68.5111 1.89974 67.6568 2.03789 66.8105 1.85719C66.493 1.79606 66.1184 1.89304 65.7995 1.88507C65.4806 1.87709 65.1086 1.86778 64.7911 1.80666C64.4736 1.74554 64.2039 1.89832 63.9395 1.83853C63.6751 1.77874 63.3536 1.87704 63.0866 1.92354C62.7664 1.9687 62.506 1.74948 62.1326 1.79332C61.386 1.88099 60.6446 1.75609 59.9006 1.73747C59.7412 1.73348 59.6363 1.67768 59.5286 1.72816C58.8883 1.81849 58.2545 1.6431 57.6142 1.73343C57.2408 1.77727 56.922 1.76929 56.55 1.75998L53.202 1.67621C52.2454 1.65228 51.2357 1.62701 50.2778 1.65622C49.2668 1.6841 48.2584 1.60569 47.246 1.68671C46.8195 1.72922 46.3412 1.71725 45.8629 1.70528L44.4281 1.66938L43.3652 1.64278C43.0464 1.63481 42.7288 1.57369 42.4605 1.67332C42.0845 1.82344 41.7736 1.49661 41.3976 1.64673C40.9738 1.58295 40.4929 1.67727 40.0664 1.71977C39.6931 1.76361 39.3237 1.64801 38.9504 1.69185C38.2569 1.78085 37.6205 1.71175 36.9801 1.80208C36.3397 1.89241 35.7034 1.82331 35.0656 1.80735C34.5342 1.79406 33.9988 1.94018 33.4674 1.92689C33.3611 1.92423 33.2535 1.97471 33.1472 1.97205C32.1906 1.94812 31.2832 2.08494 30.3798 2.06234C30.2203 2.05835 30.0596 2.1075 29.9533 2.10484C29.6902 1.99191 29.5295 2.04106 29.2611 2.1407C29.1548 2.13804 28.9927 2.24034 28.8878 2.18454C28.5198 2.0158 28.1929 2.32668 27.8754 2.26556C27.5047 2.20311 27.1314 2.24694 26.8112 2.2921C26.3316 2.33328 25.8533 2.32131 25.3737 2.36249C24.3082 2.44218 23.2905 2.73578 22.2276 2.70918C22.0682 2.70519 21.9101 2.64806 21.8025 2.69854C21.5328 2.85132 21.2139 2.84334 20.9482 2.83669C20.4168 2.82339 19.9332 3.024 19.4031 2.95756C19.1334 3.11034 18.8158 3.04922 18.4957 3.09438C18.2818 3.14221 18.1237 3.08508 17.9629 3.13423C17.2667 3.32952 16.5214 3.36404 15.8305 3.34676C15.1397 3.32947 14.498 3.47294 13.8576 3.56327C13.2704 3.65493 12.6818 3.79973 12.0428 3.83692C11.6163 3.87942 11.2443 3.87012 10.8165 3.96576C10.3887 4.06141 9.91173 3.9963 9.53574 4.14643C8.83691 4.448 8.04641 4.16233 7.34758 4.46391C7.29443 4.46258 7.29576 4.40943 7.24262 4.4081C5.96719 4.37619 4.68379 4.66313 3.40836 4.63122C3.30207 4.62856 3.24893 4.62723 3.14131 4.67772C2.87294 4.77736 2.55408 4.76938 2.28837 4.76273C1.59751 4.74544 0.955807 4.88891 0.318093 4.87296C0.0523785 4.86631 -0.0605558 5.12936 0.0948835 5.29278C0.250323 5.45619 0.247664 5.56248 0.460235 5.5678Z" fill="#FF882E"/>
</svg>
