<svg width="43" height="40" viewBox="0 0 43 40" fill="none" xmlns="http://www.w3.org/2000/svg">
<path d="M33.5494 12.3575C34.5219 12.3575 35.3132 11.5663 35.3132 10.5937V7.01861C35.3132 6.04603 34.5219 5.25487 33.5494 5.25487H33.2408V1.76374C33.2408 0.791165 32.4495 0 31.477 0H18.7442C17.7717 0 16.9805 0.791165 16.9805 1.76374V5.33885C16.9805 6.31143 17.7717 7.1026 18.7442 7.1026H19.0529V10.5097H18.7442C17.7717 10.5097 16.9805 11.3009 16.9805 12.2735V15.8486C16.9805 16.8212 17.7717 17.6123 18.7442 17.6123H19.0529V21.1035C19.0529 22.076 19.8441 22.8672 20.8166 22.8672H33.5494C34.5219 22.8672 35.3132 22.076 35.3132 21.1035V17.5283C35.3132 16.5558 34.5219 15.7646 33.5494 15.7646H33.2408V12.3575H33.5494ZM18.8282 1.84773H31.393V5.25487H18.8282V1.84773ZM20.9006 7.1026H33.4654V10.5097H20.9006V7.1026ZM33.4654 21.0195H20.9006V17.6123H33.4654V21.0195ZM31.393 15.7646H18.8282V12.3575H31.393V15.7646Z" fill="#FF882E"/>
<path d="M7.91215 18.1656H8.24071V18.4941C8.24071 19.0044 8.65435 19.418 9.16457 19.418C9.6748 19.418 10.0884 19.0044 10.0884 18.4941V18.1656H10.417C10.9272 18.1656 11.3409 17.7519 11.3409 17.2417C11.3409 16.7315 10.9272 16.3179 10.417 16.3179H10.0884V15.9893C10.0884 15.4791 9.6748 15.0654 9.16457 15.0654C8.65435 15.0654 8.24071 15.4791 8.24071 15.9893V16.3179H7.91215C7.40192 16.3179 6.98828 16.7315 6.98828 17.2417C6.98828 17.7519 7.40184 18.1656 7.91215 18.1656Z" fill="black"/>
<path d="M37.5264 4.22906H37.855V4.55763C37.855 5.06785 38.2686 5.48149 38.7788 5.48149C39.2891 5.48149 39.7027 5.06785 39.7027 4.55763V4.22906H40.0313C40.5415 4.22906 40.9551 3.81542 40.9551 3.3052C40.9551 2.79497 40.5415 2.38133 40.0313 2.38133H39.7027V2.05277C39.7027 1.54255 39.2891 1.12891 38.7788 1.12891C38.2686 1.12891 37.855 1.54255 37.855 2.05277V2.38133H37.5264C37.0162 2.38133 36.6025 2.79497 36.6025 3.3052C36.6025 3.81542 37.0162 4.22906 37.5264 4.22906Z" fill="black"/>
<path d="M41.928 25.1939C41.2356 24.5014 40.315 24.1201 39.3358 24.1201C38.3565 24.1201 37.4359 24.5015 36.7435 25.1939L32.9144 29.0229C32.3131 27.8178 31.0675 26.9882 29.6317 26.9882H26.8246C25.7305 26.9882 24.6351 26.729 23.6569 26.2386C22.4231 25.62 21.0412 25.2929 19.661 25.2929H18.4054C17.0474 25.2929 15.7309 25.5755 14.4925 26.1326L13.6371 26.5175C12.6385 26.9667 11.577 27.1945 10.4823 27.1945H3.03213C1.36018 27.1945 0 28.5547 0 30.2265V36.9123C0 38.5842 1.36018 39.9444 3.03213 39.9444H30.5735C31.9683 39.9444 33.3216 39.3667 34.2864 38.3592L41.9356 30.3706C43.3574 28.9407 43.3549 26.6207 41.928 25.1939ZM40.6215 29.0719C40.6167 29.0766 40.6121 29.0814 40.6074 29.0862L32.9519 37.0814C32.3339 37.7267 31.467 38.0968 30.5736 38.0968H3.03213C2.37904 38.0968 1.84773 37.5655 1.84773 36.9124V30.2266C1.84773 29.5736 2.37904 29.0422 3.03213 29.0422H10.4824C11.8403 29.0422 13.1568 28.7597 14.3953 28.2025L15.2508 27.8176C16.2492 27.3683 17.3106 27.1406 18.4055 27.1406H19.6611C20.7553 27.1406 21.8507 27.3998 22.8289 27.8902C24.0627 28.5088 25.4445 28.8359 26.8247 28.8359H29.6318C30.6345 28.8359 31.4501 29.6516 31.4501 30.6541C31.4501 30.698 31.4478 30.7473 31.4431 30.8047C31.4429 30.8076 31.4429 30.8106 31.4428 30.8135C31.4335 30.916 31.4155 31.0202 31.3869 31.1257C31.1692 31.9293 30.418 32.4724 29.5854 32.4724H19.9502C19.4415 32.4724 19.0052 32.8703 18.9959 33.3789C18.9864 33.8971 19.4035 34.3201 19.9196 34.3201H29.6317C31.4282 34.3201 32.9259 33.0209 33.2373 31.3129L38.0501 26.5002C38.3935 26.1568 38.8501 25.9677 39.3359 25.9677C39.8215 25.9677 40.2781 26.1568 40.6216 26.5002C41.3304 27.2094 41.3304 28.3628 40.6215 29.0719Z" fill="black"/>
</svg>
