<svg width="43" height="43" viewBox="0 0 43 43" fill="none" xmlns="http://www.w3.org/2000/svg">
<path d="M30.9925 22.9386C30 22.5868 29.4218 22.355 29.2282 22.2634C28.9035 22.1098 28.7561 21.8934 28.7778 21.6017C28.8008 21.2918 29.0194 20.9883 29.2754 20.911C30.2043 20.6304 30.8227 20.9152 30.9945 21.1606C31.2869 21.5786 31.8629 21.6804 32.2811 21.3879C32.6991 21.0954 32.8008 20.5194 32.5084 20.1014C32.1646 19.6101 31.5621 19.1937 30.7803 19.0255C30.7741 18.5207 30.363 18.1133 29.8567 18.1133C29.3465 18.1133 28.9328 18.5269 28.9328 19.0371V19.0886C28.8694 19.105 28.8055 19.1229 28.7412 19.1423C27.7575 19.4396 27.0149 20.3945 26.9354 21.4648C26.8563 22.5283 27.4183 23.4512 28.4384 23.9336C28.7541 24.083 29.4782 24.362 30.3753 24.68C31.1276 24.9468 31.4115 25.5308 31.3567 25.9605C31.3026 26.3853 30.9071 26.6608 30.2715 26.7165C29.6136 26.7744 28.7448 26.5801 28.3575 26.0978C28.0379 25.7 27.4564 25.6365 27.0587 25.9561C26.6609 26.2756 26.5975 26.8571 26.917 27.2548C27.4387 27.9044 28.1889 28.2715 28.9349 28.4457C28.9648 28.929 29.366 29.3117 29.8568 29.3117C30.3246 29.3117 30.7112 28.9639 30.7722 28.5128C32.1021 28.2804 33.0364 27.3974 33.1896 26.194C33.3671 24.7988 32.4636 23.4601 30.9925 22.9386Z" fill="#FF882E"/>
<path d="M16.6518 12.7371C14.6009 10.6862 11.515 9.83036 8.18568 10.3888C7.79708 10.4539 7.49264 10.7584 7.42746 11.147C6.8688 14.4764 7.72468 17.562 9.77558 19.6129C11.4153 21.2526 13.716 22.1284 16.2744 22.1284C16.5989 22.1284 16.9276 22.1142 17.2597 22.0858C17.5197 22.0635 19.2104 18.6499 19.0367 17.5611C18.7369 15.6807 17.9244 14.0097 16.6518 12.7371ZM9.15847 12.1199C11.6532 11.8581 13.8319 12.5302 15.3453 14.0436C16.6139 15.3122 17.2914 17.0479 17.3232 19.0457L14.5893 16.443C14.2199 16.0913 13.6351 16.1055 13.2833 16.4751C12.9315 16.8446 12.9458 17.4294 13.3154 17.7812L15.9411 20.2809C14.0035 20.2196 12.3203 19.5446 11.0822 18.3064C9.56873 16.7931 8.89652 14.6147 9.15847 12.1199Z" fill="#FF882E"/>
<path d="M41.1757 1.50339C41.1106 1.1148 40.8061 0.810352 40.4175 0.74518C37.0881 0.186852 34.0024 1.04265 31.9514 3.09347C30.0207 5.02418 29.149 7.87201 29.5195 10.9769C29.5426 11.1702 34.2113 12.3616 35.0769 12.1212C36.5196 11.7205 37.8028 10.994 38.8275 9.96935C40.8785 7.91845 41.7344 4.83278 41.1757 1.50339ZM37.5212 8.66281C36.2839 9.90006 34.6025 10.5751 32.6669 10.6372L35.2885 8.13698C35.6577 7.78483 35.6717 7.20005 35.3195 6.83086C34.9674 6.46158 34.3826 6.44772 34.0134 6.79987L31.2799 9.40657C31.3107 7.4069 31.9883 5.66944 33.2579 4.39984C34.7713 2.88636 36.9498 2.21432 39.4447 2.4761C39.7068 4.97111 39.0346 7.14941 37.5212 8.66281Z" fill="#FF882E"/>
<path d="M29.962 10.6396C26.4883 10.6396 23.2203 11.9935 20.7596 14.4518C18.3004 16.9087 16.9383 20.1783 16.9241 23.6576C16.9241 23.6618 16.9241 23.6893 16.924 23.7282H9.10584V23.2847C9.10584 22.7745 8.69221 22.3608 8.18201 22.3608H0.923828C0.413623 22.3608 0 22.7745 0 23.2847V35.6978C0 36.208 0.413623 36.6216 0.923828 36.6216H8.18201C8.69221 36.6216 9.10584 36.208 9.10584 35.6978V34.8114L14.8542 39.5703C14.861 39.5758 14.8677 39.5812 14.8745 39.5865C15.6959 40.2285 16.678 40.6229 17.7143 40.7271L34.3824 42.4027C34.5162 42.4161 34.65 42.4228 34.7833 42.4228C35.7772 42.4228 36.7456 42.0536 37.4895 41.3807C38.3361 40.615 38.8216 39.5204 38.8216 38.3776C38.8216 36.8838 38.0076 35.561 36.7798 34.8604C38.2829 33.9364 39.5875 32.7115 40.6222 31.2412C42.1778 29.0304 43 26.427 43 23.7126C43 16.5041 37.1512 10.6396 29.962 10.6396ZM7.25818 34.774H1.84766V24.2085H7.25818V34.774ZM36.2502 40.0104C35.7862 40.4301 35.1882 40.6268 34.5673 40.5643L17.8992 38.8887C17.2148 38.8199 16.5659 38.5605 16.0219 38.1382L9.10584 32.4128V25.5758H18.4107C19.3273 25.5758 20.192 25.931 20.8457 26.5761L26.2171 31.8769C26.9026 32.5643 26.9026 33.6828 26.2165 34.3709L26.2085 34.3789C25.8773 34.7111 25.4371 34.894 24.9691 34.894C24.5012 34.894 24.061 34.7111 23.7299 34.3789C23.7195 34.3684 23.7088 34.3583 23.6979 34.3484L18.461 29.5769C18.0839 29.2332 17.4996 29.2604 17.1559 29.6375C16.8122 30.0147 16.8394 30.599 17.2165 30.9426L22.4381 35.7002C23.1165 36.372 24.0144 36.7417 24.9691 36.7417C25.9315 36.7417 26.8365 36.3658 27.5174 35.6829L27.5254 35.6749C27.6333 35.5666 27.7329 35.4532 27.8243 35.3353L35.0431 36.1953C36.1438 36.3264 36.9739 37.2645 36.9739 38.3776C36.974 39.0083 36.717 39.5881 36.2502 40.0104ZM33.9502 34.2042L28.5508 33.561C28.6789 32.4967 28.3357 31.3848 27.5203 30.567L22.1435 25.261C21.2281 24.3577 20.0419 23.8252 18.7717 23.7403C18.7717 23.7011 18.7717 23.6725 18.7718 23.666C18.7968 17.5021 23.8167 12.4874 29.962 12.4874C36.1324 12.4874 41.1523 17.523 41.1523 23.7127C41.1523 28.3468 38.2609 32.5542 33.9502 34.2042Z" fill="black"/>
</svg>
